<?xml version="1.0" encoding="UTF-8" standalone="no"?>
<svg
   xmlns:dc="http://purl.org/dc/elements/1.1/"
   xmlns:cc="http://creativecommons.org/ns#"
   xmlns:rdf="http://www.w3.org/1999/02/22-rdf-syntax-ns#"
   xmlns:svg="http://www.w3.org/2000/svg"
   xmlns="http://www.w3.org/2000/svg"
   xmlns:sodipodi="http://sodipodi.sourceforge.net/DTD/sodipodi-0.dtd"
   xmlns:inkscape="http://www.inkscape.org/namespaces/inkscape"
   width="129.39777mm"
   height="97.295151mm"
   viewBox="0 0 129.39777 97.29515"
   version="1.1"
   id="svg8"
   inkscape:version="1.1-dev (ac425a255e, 2020-06-01, custom)"
   sodipodi:docname="speed.svg">
  <defs
     id="defs2" />
  <sodipodi:namedview
     fit-margin-bottom="0"
     fit-margin-right="0"
     fit-margin-left="0"
     fit-margin-top="0"
     id="base"
     pagecolor="#ffffff"
     bordercolor="#666666"
     borderopacity="1.0"
     inkscape:pageopacity="0.0"
     inkscape:pageshadow="2"
     inkscape:zoom="1.4"
     inkscape:cx="300.66895"
     inkscape:cy="187.67456"
     inkscape:document-units="mm"
     inkscape:current-layer="layer1"
     inkscape:document-rotation="0"
     showgrid="false"
     inkscape:window-width="1890"
     inkscape:window-height="1002"
     inkscape:window-x="56"
     inkscape:window-y="50"
     inkscape:window-maximized="0" />
  <metadata
     id="metadata5">
    <rdf:RDF>
      <cc:Work
         rdf:about="">
        <dc:format>image/svg+xml</dc:format>
        <dc:type
           rdf:resource="http://purl.org/dc/dcmitype/StillImage" />
      </cc:Work>
    </rdf:RDF>
  </metadata>
  <g
     transform="translate(-41.243657,-59.240273)"
     inkscape:label="Layer 1"
     inkscape:groupmode="layer"
     id="layer1">
    <g
       transform="matrix(2.1407597,0,0,2.1407597,338.35824,-74.331641)"
       id="g997">
      <path
         sodipodi:nodetypes="aaaaaaaaaaaa"
         id="path1005"
         d="m -131.4271,71.571407 c 1.97105,-3.240805 6.69881,-3.846048 10.42285,-4.566706 7.71413,-1.492801 15.81663,-0.606663 23.560673,0.722266 4.468901,0.766892 9.410313,1.315514 12.957368,4.139978 3.130275,2.492588 6.431079,6.336841 6.121452,10.326295 -0.424503,5.469598 -8.480897,7.582828 -10.476501,12.69304 -1.125157,2.881227 1.597675,6.99818 -0.50622,9.26557 -4.617821,4.97668 -13.526982,3.89261 -20.197092,2.62718 -4.95979,-0.94095 -8.4617,-5.74711 -13.25924,-7.318242 -3.94176,-1.290878 -10.31932,2.025792 -12.34045,-1.5962 -1.87239,-3.355439 4.05829,-6.725071 4.74472,-10.505763 0.94209,-5.188777 -3.76792,-11.281713 -1.02756,-15.787418 z"
         style="fill:#f2f2f2;fill-opacity:1;stroke:none;stroke-width:0.123593px;stroke-linecap:butt;stroke-linejoin:miter;stroke-opacity:1" />
      <path
         style="fill:#769fd2;fill-opacity:1;stroke:#5986be;stroke-width:1.76479;stroke-linecap:round;stroke-linejoin:round;stroke-miterlimit:4;stroke-dasharray:none;stroke-opacity:1;paint-order:normal"
         d="m -108.71149,69.11141 v -2.31068 h -2.79273 v -3.523703 h 9.69375 v 3.523703 h -2.82316 v 2.332213 z"
         id="path62"
         sodipodi:nodetypes="ccccccccc" />
      <g
         style="stroke:#ff3e3e;stroke-width:3.3;stroke-miterlimit:4;stroke-dasharray:none;stroke-opacity:1;paint-order:stroke fill markers"
         id="g999">
        <path
           id="path1001"
           d="m -96.04909,75.538223 3.202014,-3.202014"
           style="color:#000000;fill:none;stroke:#ff3e3e;stroke-width:3.3;stroke-linecap:round;stroke-linejoin:round;stroke-miterlimit:4;stroke-dasharray:none;stroke-opacity:1;paint-order:stroke fill markers" />
        <path
           id="path1003"
           d="m -92.847656,71.486328 a 0.85000002,0.85000002 0 0 0 -0.59961,0.248047 l -3.203125,3.203125 a 0.85000002,0.85000002 0 0 0 0,1.201172 0.85000002,0.85000002 0 0 0 1.203125,0 l 3.201172,-3.201172 a 0.85000002,0.85000002 0 0 0 0,-1.203125 0.85000002,0.85000002 0 0 0 -0.601562,-0.248047 z"
           style="color:#000000;fill:#d5635c;fill-opacity:1;stroke:#c53830;stroke-width:3.3;stroke-linecap:round;stroke-linejoin:round;stroke-miterlimit:4;stroke-dasharray:none;stroke-opacity:1;paint-order:stroke fill markers" />
      </g>
      <circle
         style="opacity:1;fill:#ffffff;fill-opacity:1;stroke:none;stroke-width:1.7648;stroke-linecap:round;stroke-linejoin:round;stroke-miterlimit:4;stroke-dasharray:none;stroke-opacity:1;paint-order:normal"
         id="path1057"
         cx="-106.67297"
         cy="85.586807"
         r="12.824472" />
      <path
         style="fill:none;stroke:#5986be;stroke-width:1.9;stroke-linecap:round;stroke-linejoin:round;stroke-miterlimit:4;stroke-dasharray:none;stroke-opacity:1"
         d="m -106.61523,72.160156 v 4.635831"
         id="path895" />
      <path
         id="path895-3"
         d="m -106.61523,94.886713 v 4.635831"
         style="fill:none;stroke:#5986be;stroke-width:1.9;stroke-linecap:round;stroke-linejoin:round;stroke-miterlimit:4;stroke-dasharray:none;stroke-opacity:1" />
      <path
         id="path895-5"
         d="m -115.6959,85.857911 h -4.63584"
         style="fill:none;stroke:#5986be;stroke-width:1.9;stroke-linecap:round;stroke-linejoin:round;stroke-miterlimit:4;stroke-dasharray:none;stroke-opacity:1" />
      <path
         style="fill:none;stroke:#5986be;stroke-width:1.9;stroke-linecap:round;stroke-linejoin:round;stroke-miterlimit:4;stroke-dasharray:none;stroke-opacity:1"
         d="m -93.008562,85.857911 h -4.63584"
         id="path895-5-5" />
      <path
         style="fill:none;stroke:#c53830;stroke-width:1.9;stroke-linecap:round;stroke-linejoin:round;stroke-miterlimit:4;stroke-dasharray:none;stroke-opacity:1"
         d="m -105.31,83.738069 1.74575,-3.023722"
         id="path928" />
      <circle
         style="opacity:1;fill:#d5635c;fill-opacity:1;stroke:#c53830;stroke-width:2.27349;stroke-linecap:round;stroke-linejoin:round;stroke-miterlimit:4;stroke-dasharray:none;stroke-opacity:1;paint-order:stroke markers fill"
         id="path926"
         cx="-106.63319"
         cy="85.944008"
         r="1.8878508" />
      <path
         id="path64-4"
         d="m -126.81688,77.907504 4.89176,0.01012"
         style="fill:none;stroke:#aa79c1;stroke-width:1.7;stroke-linecap:round;stroke-linejoin:round;stroke-miterlimit:4;stroke-dasharray:none;stroke-opacity:1"
         sodipodi:nodetypes="cc" />
      <path
         style="fill:none;stroke:#aa79c1;stroke-width:1.7;stroke-linecap:round;stroke-linejoin:round;stroke-miterlimit:4;stroke-dasharray:none;stroke-opacity:1"
         d="m -128.49609,81.884747 5.05748,0.01012"
         id="path64-4-5"
         sodipodi:nodetypes="cc" />
      <path
         style="fill:none;stroke:#aa79c1;stroke-width:1.7;stroke-linecap:round;stroke-linejoin:round;stroke-miterlimit:4;stroke-dasharray:none;stroke-opacity:1"
         d="m -137.93932,85.83421 13.77212,0.01012"
         id="path64-4-0"
         sodipodi:nodetypes="cc" />
      <path
         style="fill:none;stroke:#aa79c1;stroke-width:1.7;stroke-linecap:round;stroke-linejoin:round;stroke-miterlimit:4;stroke-dasharray:none;stroke-opacity:1"
         d="m -126.67431,93.793396 4.52831,0.01012"
         id="path64-4-2" />
      <path
         style="fill:none;stroke:#aa79c1;stroke-width:1.7;stroke-linecap:round;stroke-linejoin:round;stroke-miterlimit:4;stroke-dasharray:none;stroke-opacity:1"
         d="m -132.33898,89.759404 5.30669,0.01012"
         id="path64-4-9"
         sodipodi:nodetypes="cc" />
      <path
         style="fill:none;stroke:#aa79c1;stroke-width:1.7;stroke-linecap:round;stroke-linejoin:round;stroke-miterlimit:4;stroke-dasharray:none;stroke-opacity:1"
         d="m -124.79615,89.78552 4.52831,0.01012"
         id="path64-4-25" />
      <path
         style="fill:none;stroke:#aa79c1;stroke-width:1.7;stroke-linecap:round;stroke-linejoin:round;stroke-miterlimit:4;stroke-dasharray:none;stroke-opacity:1"
         d="m -132.39646,81.879579 1.74027,0.01012"
         id="path64-4-6"
         sodipodi:nodetypes="cc" />
      <g
         id="g889">
        <path
           style="color:#000000;fill:none;stroke-width:2.41046;stroke-linecap:round;stroke-linejoin:round;paint-order:fill markers stroke"
           d="m -91.812106,85.758469 a 14.803472,14.803472 0 0 1 -14.803474,14.803471 14.803472,14.803472 0 0 1 -14.80347,-14.803471 14.803472,14.803472 0 0 1 14.80347,-14.803472 14.803472,14.803472 0 0 1 14.803474,14.803472"
           id="path891" />
        <path
           style="color:#000000;fill:#769fd2;fill-opacity:1;stroke:#5986be;stroke-width:3.41;stroke-linecap:round;stroke-linejoin:round;stroke-miterlimit:4;stroke-dasharray:none;stroke-opacity:1;paint-order:stroke fill markers"
           d="m -106.61523,69.75 c -8.82708,10e-7 -16.00977,7.180736 -16.00977,16.007812 0,8.827077 7.18269,16.009768 16.00977,16.009768 8.827074,0 16.007808,-7.182689 16.007808,-16.009768 0,-8.827078 -7.180734,-16.007813 -16.007808,-16.007812 z m 0,2.410156 c 7.524366,-10e-7 13.597652,6.073286 13.597652,13.597656 -10e-7,7.524371 -6.073286,13.599611 -13.597652,13.59961 -7.52437,-10e-7 -13.59766,-6.075241 -13.59766,-13.59961 0,-7.524368 6.07329,-13.597655 13.59766,-13.597656 z"
           id="path893" />
      </g>
    </g>
  </g>
</svg>
