<?xml version="1.0" encoding="UTF-8" standalone="no"?>
<svg
   xmlns:dc="http://purl.org/dc/elements/1.1/"
   xmlns:cc="http://creativecommons.org/ns#"
   xmlns:rdf="http://www.w3.org/1999/02/22-rdf-syntax-ns#"
   xmlns:svg="http://www.w3.org/2000/svg"
   xmlns="http://www.w3.org/2000/svg"
   xmlns:sodipodi="http://sodipodi.sourceforge.net/DTD/sodipodi-0.dtd"
   xmlns:inkscape="http://www.inkscape.org/namespaces/inkscape"
   width="101.27911mm"
   height="82.468933mm"
   viewBox="0 0 101.27911 82.468933"
   version="1.1"
   id="svg8"
   inkscape:version="1.1-dev (ac425a255e, 2020-06-01, custom)"
   sodipodi:docname="sane.svg">
  <defs
     id="defs2" />
  <sodipodi:namedview
     fit-margin-bottom="0"
     fit-margin-right="0"
     fit-margin-left="0"
     fit-margin-top="0"
     id="base"
     pagecolor="#ffffff"
     bordercolor="#666666"
     borderopacity="1.0"
     inkscape:pageopacity="0.0"
     inkscape:pageshadow="2"
     inkscape:zoom="0.98994949"
     inkscape:cx="312.37004"
     inkscape:cy="40.442051"
     inkscape:document-units="mm"
     inkscape:current-layer="layer1"
     inkscape:document-rotation="0"
     showgrid="false"
     inkscape:window-width="1890"
     inkscape:window-height="1002"
     inkscape:window-x="56"
     inkscape:window-y="50"
     inkscape:window-maximized="0" />
  <metadata
     id="metadata5">
    <rdf:RDF>
      <cc:Work
         rdf:about="">
        <dc:format>image/svg+xml</dc:format>
        <dc:type
           rdf:resource="http://purl.org/dc/dcmitype/StillImage" />
      </cc:Work>
    </rdf:RDF>
  </metadata>
  <g
     transform="translate(200.2382,-69.925077)"
     inkscape:label="Layer 1"
     inkscape:groupmode="layer"
     id="layer1">
    <g
       id="g1562" />
    <g
       id="g1568" />
    <g
       id="g1574" />
    <g
       id="g1580" />
    <g
       id="g1586" />
    <g
       id="g1592" />
    <g
       id="g1598" />
    <g
       id="g1604" />
    <g
       id="g1610" />
    <g
       id="g1616" />
    <g
       id="g1622" />
    <g
       id="g1628" />
    <g
       id="g1634" />
    <g
       id="g905">
      <path
         id="path1363"
         style="opacity:1;fill:#f2f2f2;fill-opacity:1;stroke:none;stroke-width:2.065;stroke-linecap:round;stroke-linejoin:round;stroke-miterlimit:4;stroke-dasharray:none;stroke-dashoffset:0;stroke-opacity:1;paint-order:normal"
         d="m -99.263426,116.34537 c 0.815029,5.48481 0.775455,11.52255 -10.492414,20.3266 -11.6698,9.11811 -28.17807,16.29192 -43.57479,15.68633 -12.97262,-0.51025 -20.31042,-5.54582 -28.53008,-9.71752 -16.55023,-8.39969 -21.25229,-20.2975 -16.77816,-32.08377 4.0248,-10.602634 9.49318,-18.211949 20.94304,-25.996299 7.6849,-5.224684 26.07339,-11.292628 35.96434,-12.08975 27.45583,-2.212692 39.98198,27.144105 42.468064,43.874409 z"
         sodipodi:nodetypes="ssssssss" />
      <g
         id="g887"
         transform="translate(0,11.028405)">
        <g
           transform="translate(-128.32905,-4.061244)"
           id="g1321">
          <g
             id="g1242"
             transform="translate(179.96426,-44.664287)">
            <path
               sodipodi:nodetypes="ccsssscccscsssssccssssssssssscccsssssssscssssssssscsssssscsssssscccssscscsccssssscssaassscsssssscccssccsssssssscccssssssccc"
               d="m -197.90583,126.89642 c -0.40565,0.0368 -0.81148,0.0973 -1.21476,0.18016 -0.40327,0.0828 -0.80396,0.18808 -1.19967,0.31397 -0.7914,0.25179 -1.5624,0.58702 -2.29259,0.994 -0.73023,0.40698 -1.41962,0.88545 -2.04736,1.42461 -0.31389,0.26959 -0.61245,0.55457 -0.89298,0.85289 -0.28054,0.29831 -0.54266,0.60994 -0.78469,0.93412 l -0.96223,1.2887 -1.50116,-0.39467 c -0.66851,-0.1758 -1.33506,-0.27801 -1.99267,-0.31138 -0.65761,-0.0334 -1.30626,0.002 -1.938,0.10154 -0.63178,0.0996 -1.24657,0.26363 -1.83753,0.48684 -0.59096,0.22321 -1.15808,0.50564 -1.6933,0.84299 -0.53518,0.33737 -1.03872,0.72947 -1.50323,1.17156 -0.46449,0.44209 -0.88955,0.93459 -1.26841,1.472 -0.37882,0.53739 -0.71156,1.11999 -0.98983,1.74326 -0.27824,0.62328 -0.50221,1.28723 -0.6649,1.98696 l -0.302,1.29965 -1.9604,0.49778 c -0.53906,0.13689 -1.1592,0.33734 -1.72401,0.55037 -0.56483,0.21302 -1.07439,0.4385 -1.39234,0.62483 -0.3592,0.21051 -0.70817,0.44594 -1.04555,0.70345 -0.33735,0.2575 -0.66316,0.53699 -0.97471,0.8357 -0.31157,0.29873 -0.6091,0.61666 -0.89091,0.95079 -0.28182,0.33413 -0.54801,0.6844 -0.79613,1.04815 -0.24815,0.36374 -0.4784,0.74129 -0.68888,1.12886 -0.21048,0.38756 -0.40077,0.78522 -0.56963,1.19082 -0.16889,0.4056 -0.31615,0.8188 -0.43948,1.23663 -0.1233,0.41784 -0.22298,0.84049 -0.2968,1.26476 -0.0683,0.39286 -0.11029,0.79696 -0.12756,1.20852 -0.0172,0.41158 -0.0101,0.83064 0.0214,1.25279 0.0314,0.42214 0.0868,0.84745 0.16454,1.27204 0.0778,0.4246 0.17817,0.84845 0.29992,1.26737 0.12175,0.41891 0.26515,0.83308 0.42853,1.23819 0.16339,0.40512 0.3467,0.80138 0.54934,1.18457 0.20264,0.38319 0.42434,0.75333 0.66387,1.10648 0.23953,0.35313 0.49706,0.68893 0.77115,1.00389 0.272,0.31258 0.62324,0.65063 1.01431,0.98566 0.39104,0.33504 0.8222,0.66725 1.25277,0.96901 0.43058,0.30175 0.86062,0.57296 1.25121,0.78572 0.39061,0.21276 0.74163,0.36725 1.01275,0.43529 0.24271,0.061 0.46876,0.19455 0.68003,0.40302 0.21125,0.20846 0.40752,0.49174 0.59099,0.85133 0.182,0.35678 0.44446,0.75696 0.75758,1.16947 0.31314,0.41251 0.67701,0.83736 1.06221,1.2434 0.38523,0.40606 0.792,0.79305 1.19031,1.13043 0.3983,0.33737 0.78793,0.62503 1.1403,0.83154 0.34063,0.19961 0.73233,0.38768 1.15126,0.55766 0.41893,0.16997 0.86526,0.32182 1.31527,0.44884 0.44998,0.12701 0.90381,0.2292 1.33764,0.29991 0.43385,0.0707 0.84795,0.10982 1.21843,0.11091 0.43766,0.001 0.91575,-0.0448 1.41159,-0.13121 0.49581,-0.0864 1.00914,-0.2133 1.51676,-0.37282 0.50764,-0.15951 1.0098,-0.35156 1.48293,-0.56963 0.47314,-0.21808 0.9172,-0.46218 1.30952,-0.72428 0.39078,-0.26106 0.7036,-0.45901 0.96902,-0.59776 0.26545,-0.13875 0.48384,-0.21785 0.68626,-0.2416 0.20243,-0.0238 0.38872,0.008 0.59049,0.0916 0.20173,0.0839 0.4187,0.22025 0.6821,0.40458 0.35015,0.24506 0.73708,0.45562 1.16061,0.63212 0.42354,0.1765 0.88389,0.319 1.38088,0.42697 0.49696,0.10796 1.03065,0.18133 1.6011,0.22077 0.57047,0.0394 1.17739,0.0447 1.8214,0.0156 1.05109,-0.0475 1.72331,-0.10567 2.32696,-0.24837 0.60365,-0.14271 1.13881,-0.36996 1.91718,-0.755 l 1.80575,-0.89299 0.99869,0.80291 c 0.34204,0.27486 0.69079,0.52647 1.04502,0.75552 0.35422,0.22905 0.71409,0.4352 1.07887,0.61806 0.36478,0.18286 0.73428,0.34276 1.10805,0.47903 0.37373,0.13629 0.75192,0.24912 1.13302,0.33846 0.38106,0.0894 0.76546,0.15481 1.15227,0.19682 0.38679,0.042 0.77597,0.0603 1.16688,0.0547 0.39087,-0.006 0.78338,-0.0353 1.17674,-0.0891 0.39339,-0.0538 0.78773,-0.13152 1.18197,-0.23379 v -5.2e-4 c 0.49621,-0.12872 1.00061,-0.31148 1.49855,-0.53943 0.49797,-0.22797 0.98901,-0.50108 1.45949,-0.80916 0.47051,-0.30808 0.92023,-0.6515 1.33401,-1.02055 0.41381,-0.36905 0.79215,-0.76379 1.12001,-1.17468 0.44769,-0.56103 0.77379,-0.91891 1.06169,-1.13667 0.14395,-0.10888 0.27831,-0.1825 0.41342,-0.22911 0.13514,-0.0465 0.27111,-0.0661 0.41813,-0.0661 0.30597,0 1.08237,-0.1703 1.81564,-0.37073 0.73327,-0.20043 1.07922,-0.27725 1.55688,-0.55089 1.15834,-0.66357 2.17918,-1.57986 3.06215,-2.58108 0.31368,-0.35569 0.52998,-0.73735 0.77373,-1.19394 0.24378,-0.45659 0.46835,-0.95877 0.65971,-1.46783 0.1914,-0.50906 0.34903,-1.02525 0.45873,-1.50895 0.10973,-0.48371 0.17148,-0.93526 0.17028,-1.31579 -0.001,-0.29968 -0.0356,-0.65878 -0.0963,-1.04711 -0.0607,-0.38832 -0.14723,-0.80554 -0.25201,-1.22049 -0.20956,-0.82993 -0.4921,-1.65158 -0.78415,-2.21606 -0.11619,-0.22456 -0.3036,-0.5015 -0.53737,-0.80343 -0.23376,-0.30194 -0.51373,-0.62885 -0.81434,-0.95338 -0.60123,-0.64905 -1.28541,-1.28832 -1.84949,-1.69902 -0.18022,-0.13121 -0.31549,-0.23132 -0.41136,-0.32386 -0.0958,-0.0926 -0.1522,-0.17756 -0.17389,-0.2791 -0.0218,-0.10153 -0.009,-0.21934 0.0333,-0.37749 0.0422,-0.15817 0.11381,-0.35668 0.20983,-0.61911 0.13887,-0.37962 0.24087,-0.84336 0.30616,-1.35015 0.0653,-0.5068 0.0937,-1.0566 0.0864,-1.60789 -0.007,-0.55128 -0.0505,-1.10417 -0.12914,-1.61727 -0.0787,-0.51309 -0.19253,-0.98657 -0.34156,-1.37879 -0.26628,-0.70077 -0.60812,-1.36556 -1.01273,-1.98278 -0.40464,-0.61723 -0.87219,-1.1867 -1.38973,-1.69537 -0.51754,-0.50869 -1.08517,-0.9568 -1.69018,-1.33194 -0.605,-0.37512 -1.24752,-0.67742 -1.91456,-0.89402 -0.33415,-0.10849 -0.76553,-0.18732 -1.24915,-0.23743 -0.48361,-0.0501 -1.01922,-0.0711 -1.56155,-0.0641 -0.54231,0.007 -1.09138,0.0421 -1.60164,0.10517 -0.51026,0.0631 -0.98197,0.15388 -1.36941,0.2718 l -1.21633,0.37074 -0.58995,-1.6256 c -0.22343,-0.61555 -0.5,-1.20625 -0.82217,-1.76826 -0.32218,-0.56202 -0.69016,-1.09515 -1.09763,-1.59488 -0.40746,-0.49973 -0.85421,-0.96623 -1.33347,-1.39493 -0.47925,-0.4287 -0.99116,-0.81951 -1.52875,-1.16843 -0.53758,-0.34891 -1.10098,-0.65603 -1.6834,-0.91641 -0.5824,-0.26038 -1.18366,-0.47422 -1.7974,-0.63732 -0.61378,-0.1631 -1.23974,-0.27514 -1.87138,-0.33221 -0.63165,-0.057 -1.26917,-0.0592 -1.90522,-0.002 z"
               style="opacity:1;fill:#f38a86;fill-opacity:1;stroke:none;stroke-width:0.267012;stroke-linecap:round;stroke-linejoin:round;stroke-miterlimit:4;stroke-dasharray:0.534024, 1.06805;stroke-dashoffset:0;stroke-opacity:1;paint-order:normal"
               id="rect1208" />
            <path
               sodipodi:nodetypes="cssscssssssssssscssscsacccsssscssscsssaaassccsssscccccssaascssscsscssscsscssssssscsssscscc"
               style="fill:#d5635c;fill-opacity:1;stroke-width:0.264583"
               d="m -214.4993,184.49377 c -1.18615,-0.24979 -1.47237,-1.26489 0.048,-2.87091 1.18871,-1.25569 2.95529,-1.57159 4.10498,-1.28842 1.08368,0.2669 1.24783,-1.59111 1.22244,-3.68686 -0.0156,-1.28851 0.0543,-3.8466 0.0543,-3.8466 l -1.87227,0.66441 c -5.05556,1.79407 -10.28217,-0.89177 -13.53682,-5.20133 -0.88414,-1.1707 -1.74952,-1.96885 -2.72302,-2.51148 -2.94056,-1.63905 -5.4509,-4.72143 -6.59941,-8.10326 -0.8598,-2.53168 -0.92649,-6.45655 -0.14793,-8.70538 1.62357,-4.68961 4.73302,-7.96901 9.04773,-9.54223 1.49368,-0.54461 1.51237,-0.56478 2.39046,-2.57797 1.1106,-2.54627 3.32528,-4.88034 5.81533,-6.1288 0.94095,-0.47178 1.74422,-0.887 1.78506,-0.92271 0.0408,-0.0357 -0.11977,-7.40463 0.0626,-11.10028 0.0893,-1.81011 0.38723,-4.76713 0.59037,-6.6635 0.11447,-1.06862 0.19884,-1.80043 0.19884,-1.80043 0,-0.32902 -0.0203,-1.37824 0.19424,-1.77383 0.44203,-0.81519 0.86079,-0.81555 1.60756,-0.81147 0.60983,0.003 1.22994,0.6421 1.00535,1.44225 -0.0986,0.3513 -0.92017,1.10346 -0.92017,1.10346 l -0.47093,2.552 c -0.38113,2.06539 -0.4874,4.17766 -0.54562,6.27712 -0.0947,3.41398 0.3202,10.24087 0.3202,10.24087 l 2.24895,0.16036 2.24896,0.16036 1.40863,-1.39069 c 1.73965,-1.7175 3.8818,-2.88323 6.55428,-3.56674 2.4519,-0.62708 3.94022,-0.65519 6.47382,-0.12223 3.84121,0.80803 7.65447,3.55018 9.5105,6.83909 l 0.87527,1.55098 1.34709,-0.13297 c 3.50803,-0.34628 7.32386,1.13437 9.79104,3.79922 2.53401,2.73704 3.43732,5.20479 3.28945,8.98649 l -0.0917,2.34628 1.07765,1.13597 c 1.36984,1.44398 1.89039,2.29131 2.50489,4.0774 1.52249,4.42519 0.49313,9.07445 -2.75057,12.42339 0,0 -0.9031,1.085 -1.46059,1.50798 -0.69932,0.53059 -1.50042,0.92829 -2.31515,1.25506 -0.55052,0.2208 -1.17349,0.22997 -1.71681,0.46794 -1.10118,0.48231 -1.92791,0.87213 -3.0565,1.91434 -3.64231,3.36354 -7.87469,4.44043 -12.45894,3.17007 -1.05025,-0.29104 -1.95492,-0.52917 -2.01036,-0.52917 l -3.27875,-1.11518 -0.6287,0.20156 c -2.74132,0.8789 -6.50037,0.88853 -9.03983,0.0232 -0.9881,-0.33671 -1.83705,-0.54199 -1.88657,-0.45619 -0.0495,0.0858 -0.52218,1.93882 -0.80978,4.15506 l -0.36752,2.8321 c -0.21631,3.987 1.82995,4.15744 -1.25479,4.92081 -2.23866,0.54407 -4.90425,0.83685 -5.83481,0.64088 z m 31.05602,-13.40758 c 1.96982,-0.51097 4.06966,-1.88595 5.37126,-3.51712 0.8886,-1.11359 1.29539,-1.42127 1.87908,-1.42127 0.60735,0 2.29534,-0.43361 3.34706,-0.91491 0.76533,-0.35024 1.47347,-0.84154 2.09594,-1.40804 0.36742,-0.33439 0.94365,-1.15363 0.94365,-1.15363 1.05961,-1.29538 2.05157,-3.9341 2.04683,-5.44476 -0.004,-1.18966 -0.54412,-3.32927 -1.12384,-4.44974 -0.46122,-0.89144 -2.05754,-2.61474 -3.17721,-3.42996 -0.71544,-0.5209 -0.72074,-0.5457 -0.33959,-1.5875 0.55137,-1.507 0.51399,-4.35202 -0.0776,-5.90904 -1.05707,-2.78197 -3.31352,-4.99982 -5.96164,-5.85965 -1.32647,-0.43069 -4.19998,-0.39315 -5.73808,0.075 l -1.20759,0.36753 -0.58546,-1.61295 c -1.77396,-4.88726 -6.89839,-8.21328 -11.94832,-7.75507 -3.22087,0.29225 -6.4473,2.09047 -8.36886,4.66432 l -0.9547,1.27879 -1.48979,-0.39177 c -5.30768,-1.39574 -10.5066,1.88139 -11.79836,7.43707 l -0.29995,1.29005 -1.94535,0.49403 c -1.06994,0.27171 -2.46169,0.79662 -3.09276,1.16645 -2.85195,1.67136 -5.07308,4.92744 -5.65911,8.29604 -0.54266,3.11922 0.5741,6.96144 2.75018,9.46207 1.07988,1.24094 3.42048,2.88125 4.49679,3.15139 0.48177,0.12091 0.89752,0.53115 1.26165,1.24491 0.72258,1.41637 2.72033,3.52214 4.11922,4.34194 1.3522,0.79244 3.51361,1.4025 4.9843,1.40682 1.73755,0.005 4.1205,-0.7437 5.67798,-1.78423 1.55128,-1.03637 1.86005,-1.07259 2.90566,-0.34083 1.3901,0.97284 3.36254,1.40134 5.91913,1.28591 2.08636,-0.0942 2.66708,-0.23149 4.21209,-0.99575 l 1.79208,-0.88648 0.99138,0.79669 c 2.7156,2.18232 5.84401,2.91568 8.9742,2.10372 z"
               id="path1124" />
          </g>
        </g>
        <g
           transform="translate(-128.32905,-4.061244)"
           id="g1357">
          <path
             id="path1359"
             d="m -40.496761,106.35708 c 0.616785,-4.2607 3.094736,-5.24937 5.288214,-5.29048 2.471232,-0.0463 4.764738,1.82642 5.102668,5.33339"
             style="color:#000000;fill:none;stroke-width:2.065;stroke-linecap:round" />
          <path
             id="path1361"
             d="m -35.228516,100.03516 c -1.244499,0.0233 -2.665472,0.32097 -3.865234,1.29101 -1.199762,0.97004 -2.090923,2.56964 -2.425781,4.88281 a 1.0325,1.0325 0 0 0 0.875,1.16993 1.0325,1.0325 0 0 0 1.169922,-0.87305 c 0.281926,-1.94752 0.937909,-2.97447 1.679687,-3.57422 0.741778,-0.59975 1.656493,-0.81424 2.605469,-0.83203 1.937917,-0.0363 3.758125,1.3005 4.056641,4.39844 a 1.0325,1.0325 0 0 0 1.125,0.92968 1.0325,1.0325 0 0 0 0.929687,-1.12695 c -0.377344,-3.916 -3.145849,-6.321916 -6.150391,-6.26562 z"
             style="color:#000000;fill:#d5635c;fill-opacity:1;stroke-width:2.065;stroke-linecap:round" />
        </g>
        <g
           transform="translate(-128.32905,-4.061244)"
           id="g1351">
          <path
             id="path1353"
             d="m -21.676021,106.35708 c 0.616785,-4.2607 3.094736,-5.24937 5.288214,-5.29048 2.471232,-0.0463 4.764738,1.82642 5.102668,5.33339"
             style="color:#000000;fill:none;stroke-width:2.065;stroke-linecap:round" />
          <path
             id="path1355"
             d="m -16.40625,100.03516 c -1.2445,0.0233 -2.665473,0.32097 -3.865234,1.29101 -1.199762,0.97004 -2.090924,2.56964 -2.425782,4.88281 a 1.0325,1.0325 0 0 0 0.873047,1.16993 1.0325,1.0325 0 0 0 1.169922,-0.87305 c 0.281927,-1.94752 0.93791,-2.97447 1.679688,-3.57422 0.741777,-0.59975 1.656492,-0.81424 2.605468,-0.83203 1.937918,-0.0363 3.758125,1.3005 4.056641,4.39844 a 1.0325,1.0325 0 0 0 1.126953,0.92968 1.0325,1.0325 0 0 0 0.927734,-1.12695 c -0.377343,-3.916 -3.143895,-6.321916 -6.148437,-6.26562 z"
             style="color:#000000;fill:#d5635c;fill-opacity:1;stroke-width:2.065;stroke-linecap:round" />
        </g>
        <g
           id="g848">
          <path
             style="color:#000000;fill:none;stroke-width:2;stroke-linecap:round;stroke-linejoin:round"
             d="m -124.49495,106.52757 c 3.77392,-11.96445 6.5482,-24.555722 6.19343,-39.448673"
             id="path850" />
          <path
             style="color:#000000;fill:#d5635c;stroke-width:2;stroke-linecap:round;stroke-linejoin:round"
             d="m -118.16411,65.401043 c -0.66399,-0.247654 -1.9725,0.125482 -1.97703,0.781785 -0.008,1.227192 0.82446,1.047024 0.86034,1.450222 1.01609,11.419954 -2.26374,27.477914 -6.16842,38.59351 -0.16564,0.52694 0.12732,1.08838 0.6543,1.25391 0.52637,0.16579 1.08753,-0.12616 1.2539,-0.65234 3.79217,-12.022313 6.59633,-24.743009 6.23829,-39.773443 -0.0139,-0.551582 -0.27906,-1.436446 -0.86138,-1.653644 z"
             id="path852"
             sodipodi:nodetypes="asscccca" />
        </g>
        <path
           sodipodi:nodetypes="csssccscccc"
           style="fill:#d5635c;fill-opacity:1;stroke-width:0.264583"
           d="m -147.48109,135.75981 c -1.18615,-0.24979 -1.47237,-1.26489 0.048,-2.87091 1.18871,-1.25569 2.95529,-1.57159 4.10498,-1.28842 1.08368,0.2669 1.24783,-1.59111 1.22244,-3.68686 -0.0156,-1.28851 0.0543,-4.66936 0.0543,-4.66936 l 2.83763,-0.0333 c -0.0495,0.0858 -0.52219,1.93881 -0.80979,4.15505 l -0.36752,2.8321 c -0.21631,3.987 1.82995,4.15744 -1.25479,4.92081 -2.23866,0.54408 -4.90425,0.83686 -5.83481,0.64088 z"
           id="path1124-1" />
      </g>
    </g>
  </g>
</svg>
